<svg xmlns="http://www.w3.org/2000/svg" width="12.25" height="14" viewBox="0 0 12.25 14">
  <path id="attribute" d="M3.062-9.625H2.625v-2.187a.439.439,0,0,0-.437-.437H1.312a.439.439,0,0,0-.437.437v2.187H.437A.439.439,0,0,0,0-9.187v.875a.439.439,0,0,0,.437.437H.875V1.312a.439.439,0,0,0,.437.437h.875a.439.439,0,0,0,.437-.437V-7.875h.437A.439.439,0,0,0,3.5-8.312v-.875A.439.439,0,0,0,3.062-9.625Zm8.75,3.5h-.437v-5.687a.439.439,0,0,0-.437-.437h-.875a.439.439,0,0,0-.437.437v5.687H9.187a.439.439,0,0,0-.437.437v.875a.439.439,0,0,0,.437.437h.437V1.312a.439.439,0,0,0,.437.437h.875a.439.439,0,0,0,.437-.437V-4.375h.437a.439.439,0,0,0,.437-.437v-.875A.439.439,0,0,0,11.812-6.125Zm-4.375,3.5H7v-9.187a.439.439,0,0,0-.437-.437H5.687a.439.439,0,0,0-.437.437v9.187H4.812a.439.439,0,0,0-.437.437v.875a.439.439,0,0,0,.437.437H5.25V1.312a.439.439,0,0,0,.437.437h.875A.439.439,0,0,0,7,1.312V-.875h.437a.439.439,0,0,0,.437-.437v-.875A.439.439,0,0,0,7.437-2.625Z" transform="translate(0 12.25)" fill="gray"/>
</svg>
