<svg xmlns="http://www.w3.org/2000/svg" width="16.078" height="12.25" viewBox="0 0 16.078 12.25">
  <path id="discord" d="M14.343-10.34a.041.041,0,0,0-.021-.019,13.35,13.35,0,0,0-3.273-1.015H11.04a.049.049,0,0,0-.043.026,9.26,9.26,0,0,0-.407.837,12.321,12.321,0,0,0-1.85-.139,12,12,0,0,0-1.826.139,8.492,8.492,0,0,0-.414-.837.052.052,0,0,0-.045-.026H6.447A13.311,13.311,0,0,0,3.174-10.36a.047.047,0,0,0-.022.019A13.56,13.56,0,0,0,.777-1.193.055.055,0,0,0,.8-1.156,13.368,13.368,0,0,0,4.813.873l.015,0A.052.052,0,0,0,4.869.854,9.514,9.514,0,0,0,5.691-.481.051.051,0,0,0,5.7-.5a.051.051,0,0,0-.033-.048,8.817,8.817,0,0,1-1.254-.6.052.052,0,0,1-.026-.044.051.051,0,0,1,.02-.041c.084-.063.169-.129.249-.2a.05.05,0,0,1,.032-.011.05.05,0,0,1,.02,0,9.512,9.512,0,0,0,8.08,0,.049.049,0,0,1,.021,0,.05.05,0,0,1,.031.011c.08.066.165.133.25.2a.052.052,0,0,1,.021.041.051.051,0,0,1-.025.044,8.273,8.273,0,0,1-1.255.6.051.051,0,0,0-.033.048.051.051,0,0,0,.006.023A10.688,10.688,0,0,0,12.621.854a.051.051,0,0,0,.042.021l.015,0A13.324,13.324,0,0,0,16.7-1.156a.051.051,0,0,0,.021-.037A13.47,13.47,0,0,0,14.343-10.34ZM6.084-3.019a1.545,1.545,0,0,1-1.445-1.62,1.537,1.537,0,0,1,1.445-1.62,1.528,1.528,0,0,1,1.445,1.62A1.537,1.537,0,0,1,6.084-3.019Zm5.342,0a1.545,1.545,0,0,1-1.445-1.62,1.537,1.537,0,0,1,1.445-1.62,1.528,1.528,0,0,1,1.445,1.62A1.532,1.532,0,0,1,11.426-3.019Z" transform="translate(-0.711 11.375)" fill="gray"/>
</svg>
