<svg xmlns="http://www.w3.org/2000/svg" width="14" height="14" viewBox="0 0 14 14">
  <path id="FAQ" d="M7.219-5.031a7,7,0,0,0-7-7,7,7,0,0,0-7,7,7,7,0,0,0,7,7A7,7,0,0,0,7.219-5.031ZM.407-9.717A3.22,3.22,0,0,1,3.7-6.838c0,2.174-2.348,2.207-2.348,3.011v.038a.339.339,0,0,1-.339.339H-.572A.339.339,0,0,1-.91-3.789V-3.9C-.91-5.061-.032-5.524.632-5.9c.569-.319.918-.536.918-.959,0-.559-.713-.93-1.29-.93-.767,0-1.113.371-1.617,1.01a.339.339,0,0,1-.47.06l-.979-.743a.339.339,0,0,1-.077-.459A3.656,3.656,0,0,1,.407-9.717Zm-.188,7a1.3,1.3,0,0,1,1.3,1.3,1.3,1.3,0,0,1-1.3,1.3,1.3,1.3,0,0,1-1.3-1.3A1.3,1.3,0,0,1,.219-2.717Z" transform="translate(6.781 12.031)" fill="gray"/>
</svg>
