<?xml version="1.0" encoding="UTF-8"?>
<svg xmlns="http://www.w3.org/2000/svg" xmlns:xlink="http://www.w3.org/1999/xlink" width="16px" height="16px" viewBox="0 0 16 16" version="1.1">
<g id="surface1">
<path style=" stroke:none;fill-rule:nonzero;fill:rgb(65.490196%,65.490196%,65.490196%);fill-opacity:1;" d="M 15.78125 8.03125 C 15.78125 9.148438 15.785156 10.269531 15.78125 11.390625 C 15.773438 13.015625 15.019531 14.21875 13.667969 15.070312 C 12.878906 15.5625 12 15.78125 11.070312 15.78125 C 9.03125 15.78125 6.996094 15.789062 4.960938 15.777344 C 3.542969 15.769531 2.324219 15.269531 1.359375 14.21875 C 0.761719 13.570312 0.40625 12.804688 0.304688 11.917969 C 0.28125 11.730469 0.277344 11.546875 0.277344 11.359375 C 0.277344 9.132812 0.273438 6.902344 0.277344 4.675781 C 0.289062 3.046875 1.042969 1.84375 2.394531 0.992188 C 3.191406 0.496094 4.070312 0.28125 5.007812 0.28125 C 7.039062 0.28125 9.070312 0.273438 11.101562 0.285156 C 12.523438 0.292969 13.746094 0.796875 14.710938 1.851562 C 15.304688 2.5 15.65625 3.265625 15.757812 4.140625 C 15.796875 4.484375 15.777344 4.828125 15.78125 5.167969 C 15.785156 6.125 15.78125 7.078125 15.78125 8.03125 Z M 1.4375 8.03125 C 1.4375 9.179688 1.433594 10.320312 1.4375 11.46875 C 1.441406 12.257812 1.726562 12.933594 2.265625 13.496094 C 2.988281 14.25 3.886719 14.617188 4.921875 14.621094 C 6.976562 14.632812 9.023438 14.625 11.078125 14.625 C 11.742188 14.625 12.371094 14.480469 12.945312 14.148438 C 14.023438 13.535156 14.628906 12.628906 14.628906 11.359375 C 14.628906 9.101562 14.628906 6.851562 14.628906 4.59375 C 14.628906 3.8125 14.34375 3.136719 13.808594 2.578125 C 13.09375 1.820312 12.191406 1.449219 11.160156 1.445312 C 9.085938 1.429688 7.011719 1.4375 4.9375 1.4375 C 4.289062 1.4375 3.679688 1.589844 3.117188 1.910156 C 2.042969 2.527344 1.433594 3.433594 1.4375 4.703125 C 1.4375 5.8125 1.4375 6.921875 1.4375 8.03125 Z M 1.4375 8.03125 "/>
<path style=" stroke:none;fill-rule:nonzero;fill:rgb(65.490196%,65.490196%,65.490196%);fill-opacity:1;" d="M 8.039062 11.34375 C 6.023438 11.34375 4.402344 9.730469 4.40625 7.71875 C 4.410156 5.757812 6.050781 4.152344 8.054688 4.15625 C 10.066406 4.15625 11.691406 5.773438 11.6875 7.765625 C 11.683594 9.742188 10.050781 11.34375 8.039062 11.34375 Z M 8.039062 10.1875 C 9.414062 10.1875 10.53125 9.097656 10.53125 7.757812 C 10.53125 6.410156 9.421875 5.3125 8.054688 5.3125 C 6.679688 5.3125 5.5625 6.402344 5.5625 7.742188 C 5.5625 9.089844 6.671875 10.1875 8.039062 10.1875 Z M 8.039062 10.1875 "/>
<path style=" stroke:none;fill-rule:nonzero;fill:rgb(65.490196%,65.490196%,65.490196%);fill-opacity:1;" d="M 11.34375 3.863281 C 11.34375 3.417969 11.683594 3.0625 12.109375 3.0625 C 12.535156 3.0625 12.875 3.421875 12.875 3.863281 C 12.875 4.296875 12.535156 4.652344 12.117188 4.65625 C 11.691406 4.660156 11.34375 4.304688 11.34375 3.863281 Z M 11.34375 3.863281 "/>
</g>
</svg>
