<svg xmlns="http://www.w3.org/2000/svg" width="16" height="16" viewBox="0 0 16 16">
  <path id="link" d="M2.207-8.207a4.736,4.736,0,0,0-.641-.537.5.5,0,0,0-.643.054l-.658.658A1.245,1.245,0,0,0-.1-7.1a.5.5,0,0,0,.217.394,2.342,2.342,0,0,1,.323.268,2.249,2.249,0,0,1,0,3.182l-2.1,2.1a2.253,2.253,0,0,1-3.2-.016,2.269,2.269,0,0,1,.036-3.186l.409-.409A.5.5,0,0,0-4.3-5.287a5.758,5.758,0,0,1-.3-1.648.5.5,0,0,0-.853-.331l-1.16,1.16a4.755,4.755,0,0,0,0,6.717,4.755,4.755,0,0,0,6.717,0l2.1-2.1L2.218-1.5A4.748,4.748,0,0,0,2.207-8.207Zm4.4-4.4a4.755,4.755,0,0,0-6.717,0l-2.1,2.1-.011.012a4.748,4.748,0,0,0,.011,6.706,4.736,4.736,0,0,0,.641.537A.5.5,0,0,0-.922-3.31l.658-.658A1.245,1.245,0,0,0,.1-4.9a.5.5,0,0,0-.217-.394,2.342,2.342,0,0,1-.323-.268,2.249,2.249,0,0,1,0-3.182l2.1-2.1a2.253,2.253,0,0,1,3.2.016,2.269,2.269,0,0,1-.036,3.186l-.409.409a.5.5,0,0,0-.118.519,5.759,5.759,0,0,1,.3,1.648.5.5,0,0,0,.853.331l1.16-1.16A4.755,4.755,0,0,0,6.611-12.611Z" transform="translate(8 14)" fill="gray"/>
</svg>
