<svg xmlns="http://www.w3.org/2000/svg" xmlns:xlink="http://www.w3.org/1999/xlink" width="207" height="48" viewBox="0 0 207 48">
  <defs>
    <linearGradient id="linear-gradient" x1="0.987" y1="0.624" x2="0.127" y2="0.401" gradientUnits="objectBoundingBox">
      <stop offset="0" stop-color="#f5d94e"/>
      <stop offset="1" stop-color="#fc55e8"/>
    </linearGradient>
    <linearGradient id="linear-gradient-2" x1="0.06" y1="0.929" x2="0.603" y2="0.343" gradientUnits="objectBoundingBox">
      <stop offset="0" stop-color="#d961c2"/>
      <stop offset="1" stop-color="#79acc6"/>
    </linearGradient>
    <clipPath id="clip-path">
      <rect id="Rectangle_1213" data-name="Rectangle 1213" width="48" height="48" rx="4" fill="url(#linear-gradient)"/>
    </clipPath>
    <clipPath id="clip-path-2">
      <path id="Path_455" data-name="Path 455" d="M15.841,11.52v2.233H12.48L0,26.234V44.16A3.84,3.84,0,0,0,3.84,48H24L35.52,36.48l-4.909-8.427A6.847,6.847,0,0,0,33.694,25.3a7.764,7.764,0,0,0,1.059-4.013,7.3,7.3,0,0,0-2.117-5.382q-2.117-2.153-6.2-2.153h-4.86V11.52Z" fill="url(#linear-gradient-2)"/>
    </clipPath>
  </defs>
  <g id="logo_light" transform="translate(-5392 -7223)">
    <g id="Group_579" data-name="Group 579">
      <path id="Path_444" data-name="Path 444" d="M70.971,24.413H61.358V15.624H57.6V36.386h3.758v-8.82h9.613v8.82h3.768V15.624H70.971Z" transform="translate(5392 7223)" fill="#383838"/>
      <path id="Path_445" data-name="Path 445" d="M88.048,21.614a8.281,8.281,0,0,0-7.9,0,6.774,6.774,0,0,0-2.589,2.819,9.26,9.26,0,0,0-.916,4.227,9.2,9.2,0,0,0,.916,4.218,6.787,6.787,0,0,0,2.589,2.808,8.281,8.281,0,0,0,7.9,0,6.785,6.785,0,0,0,2.588-2.808,9.2,9.2,0,0,0,.917-4.218,9.261,9.261,0,0,0-.917-4.227,6.772,6.772,0,0,0-2.588-2.819m-.623,9.611a4.093,4.093,0,0,1-1.241,1.84,3.144,3.144,0,0,1-2.066.684,3.208,3.208,0,0,1-2.1-.684,4.062,4.062,0,0,1-1.246-1.84,7.643,7.643,0,0,1-.411-2.575,7.72,7.72,0,0,1,.411-2.59,4.094,4.094,0,0,1,1.246-1.85,3.19,3.19,0,0,1,2.1-.69,3.126,3.126,0,0,1,2.066.69,4.126,4.126,0,0,1,1.241,1.85,7.746,7.746,0,0,1,.41,2.59,7.669,7.669,0,0,1-.41,2.575" transform="translate(5393 7223)" fill="#383838"/>
      <path id="Path_446" data-name="Path 446" d="M107.725,31.7h-.152l-2.8-10.888h-3.7l-2.8,10.949h-.142L95.407,20.814H91.669l4.4,15.572H99.9l2.917-10.523h.213l2.917,10.523h3.819l4.407-15.572h-3.749Z" transform="translate(5394 7223)" fill="#383838"/>
      <path id="Path_447" data-name="Path 447" d="M127.831,27.986a5.615,5.615,0,0,0,2.487-2.26,6.805,6.805,0,0,0,.845-3.462,7.013,7.013,0,0,0-.836-3.483,5.715,5.715,0,0,0-2.461-2.326,8.762,8.762,0,0,0-4.016-.832h-7.78V36.386h3.757v-7.6h3.825l4.077,7.6h4.194l-4.489-8.224c.135-.055.267-.113.4-.176m-.927-3.862a2.715,2.715,0,0,1-1.322,1.145,5.731,5.731,0,0,1-2.289.391h-3.466V18.766h3.444a5.527,5.527,0,0,1,2.3.411,2.8,2.8,0,0,1,1.327,1.2,3.85,3.85,0,0,1,.435,1.891,3.706,3.706,0,0,1-.43,1.86" transform="translate(5395 7223)" fill="#383838"/>
      <path id="Path_448" data-name="Path 448" d="M143.559,21.741a6.378,6.378,0,0,0-2.037-.867,9.665,9.665,0,0,0-2.238-.263,8.8,8.8,0,0,0-2.978.481,5.892,5.892,0,0,0-2.28,1.44,5.508,5.508,0,0,0-1.337,2.377l3.424.487a2.909,2.909,0,0,1,1.059-1.389,3.479,3.479,0,0,1,2.132-.588,2.774,2.774,0,0,1,1.955.628,2.3,2.3,0,0,1,.679,1.774v.061a.854.854,0,0,1-.39.776,3.233,3.233,0,0,1-1.241.365q-.851.115-2.218.258a15.72,15.72,0,0,0-2.194.39,6.819,6.819,0,0,0-1.9.786,3.759,3.759,0,0,0-1.327,1.379,4.392,4.392,0,0,0-.486,2.179,4.6,4.6,0,0,0,.684,2.576,4.28,4.28,0,0,0,1.863,1.576,6.4,6.4,0,0,0,2.66.532,6.052,6.052,0,0,0,2.122-.339,4.5,4.5,0,0,0,1.509-.9,4.457,4.457,0,0,0,.937-1.211h.122v2.139H145.6V25.963a5.374,5.374,0,0,0-.562-2.585,4.468,4.468,0,0,0-1.484-1.637M141.948,30.8a3.022,3.022,0,0,1-.441,1.592,3.217,3.217,0,0,1-1.251,1.171,3.956,3.956,0,0,1-1.914.441,3.209,3.209,0,0,1-1.884-.518,1.965,1.965,0,0,1-.365-2.691,2.462,2.462,0,0,1,1.023-.7,6.43,6.43,0,0,1,1.469-.365c.243-.033.53-.074.861-.121s.665-.1,1-.163a8.512,8.512,0,0,0,.917-.212,1.734,1.734,0,0,0,.582-.264Z" transform="translate(5396 7223)" fill="#383838"/>
      <path id="Path_449" data-name="Path 449" d="M155.063,20.591a4.013,4.013,0,0,0-2.376.735,3.9,3.9,0,0,0-1.463,2.083h-.162v-2.6h-3.556V36.386h3.667V27.231a3.345,3.345,0,0,1,.456-1.754,3.229,3.229,0,0,1,1.251-1.191,3.717,3.717,0,0,1,1.8-.431,7.4,7.4,0,0,1,.967.066,4.053,4.053,0,0,1,.735.147V20.692a5.189,5.189,0,0,0-.633-.076c-.253-.016-.481-.025-.684-.025" transform="translate(5397 7223)" fill="#383838"/>
      <path id="Path_450" data-name="Path 450" d="M169.507,22.5a6.228,6.228,0,0,0-2.269-1.425,7.957,7.957,0,0,0-2.72-.461,7.246,7.246,0,0,0-3.879,1.018,6.906,6.906,0,0,0-2.568,2.84,9.247,9.247,0,0,0-.917,4.222,9.275,9.275,0,0,0,.912,4.242,6.546,6.546,0,0,0,2.608,2.778,7.949,7.949,0,0,0,4.037.978,8.751,8.751,0,0,0,3.221-.553,5.989,5.989,0,0,0,2.315-1.561,5.336,5.336,0,0,0,1.231-2.367l-3.424-.385a2.839,2.839,0,0,1-.719,1.105,3.153,3.153,0,0,1-1.125.674,4.345,4.345,0,0,1-1.449.228,4.109,4.109,0,0,1-2.086-.512,3.5,3.5,0,0,1-1.388-1.48,4.981,4.981,0,0,1-.494-2.234H171.63V28.477a9.907,9.907,0,0,0-.568-3.533,6.69,6.69,0,0,0-1.555-2.447M160.8,27.129a4.037,4.037,0,0,1,.473-1.7,3.774,3.774,0,0,1,1.322-1.419,3.589,3.589,0,0,1,1.975-.543,3.526,3.526,0,0,1,1.849.477,3.349,3.349,0,0,1,1.241,1.3,3.99,3.99,0,0,1,.456,1.881Z" transform="translate(5398 7223)" fill="#383838"/>
      <path id="Path_451" data-name="Path 451" d="M174.969,32.168a2.17,2.17,0,0,0-1.58.649,2.081,2.081,0,0,0-.649,1.561,2.107,2.107,0,0,0,.649,1.582,2.173,2.173,0,0,0,1.58.648,2.11,2.11,0,0,0,1.1-.3,2.352,2.352,0,0,0,.811-.806,2.193,2.193,0,0,0,.319-1.125,2.26,2.26,0,0,0-2.229-2.21" transform="translate(5399 7223)" fill="#383838"/>
      <rect id="Rectangle_1210" data-name="Rectangle 1210" width="3.667" height="15.572" transform="translate(5579.11 7243.813)" fill="#383838"/>
      <path id="Path_452" data-name="Path 452" d="M180.954,14.619a2.124,2.124,0,0,0-1.5.583,1.9,1.9,0,0,0-.005,2.819,2.221,2.221,0,0,0,3,0,1.906,1.906,0,0,0,0-2.819,2.107,2.107,0,0,0-1.494-.583" transform="translate(5399.994 7223)" fill="#383838"/>
      <path id="Path_453" data-name="Path 453" d="M196.911,29.015a6.74,6.74,0,0,0-3.287-1.511l-2.654-.567a4.2,4.2,0,0,1-1.7-.7,1.341,1.341,0,0,1-.5-1.1,1.457,1.457,0,0,1,.765-1.287,3.486,3.486,0,0,1,1.919-.5,3.381,3.381,0,0,1,1.438.274,2.509,2.509,0,0,1,.938.719,2.769,2.769,0,0,1,.491.953l3.343-.365a4.911,4.911,0,0,0-1.95-3.152,7.106,7.106,0,0,0-4.31-1.166,8.618,8.618,0,0,0-3.288.583,5.115,5.115,0,0,0-2.218,1.642,4,4,0,0,0-.785,2.5,3.845,3.845,0,0,0,1.063,2.813,6.29,6.29,0,0,0,3.313,1.577l2.654.557a3.656,3.656,0,0,1,1.585.669,1.39,1.39,0,0,1,.512,1.1,1.57,1.57,0,0,1-.8,1.328,3.683,3.683,0,0,1-2.1.538,3.583,3.583,0,0,1-2.057-.538,2.522,2.522,0,0,1-1.033-1.591l-3.576.344a4.792,4.792,0,0,0,2.077,3.351,7.951,7.951,0,0,0,4.6,1.2,8.848,8.848,0,0,0,3.444-.628,5.544,5.544,0,0,0,2.345-1.749,4.232,4.232,0,0,0,.856-2.59,3.613,3.613,0,0,0-1.089-2.707" transform="translate(5401 7223)" fill="#383838"/>
    </g>
    <g id="Group_580" data-name="Group 580">
      <g id="Group_568" data-name="Group 568" transform="translate(5392 7223)">
        <g id="Group_567" data-name="Group 567" clip-path="url(#clip-path)">
          <rect id="Rectangle_1212" data-name="Rectangle 1212" width="65.569" height="65.569" transform="matrix(0.5, -0.866, 0.866, 0.5, -20.785, 36)" fill="url(#linear-gradient)"/>
        </g>
      </g>
      <path id="Path_454" data-name="Path 454" d="M41.28,44.16H6.72a2.883,2.883,0,0,1-2.88-2.88V6.72A2.883,2.883,0,0,1,6.72,3.84H41.28a2.883,2.883,0,0,1,2.88,2.88V41.28a2.883,2.883,0,0,1-2.88,2.88M6.72,5.76a.962.962,0,0,0-.96.96V41.28a.962.962,0,0,0,.96.96H41.28a.962.962,0,0,0,.96-.96V6.72a.962.962,0,0,0-.96-.96Z" transform="translate(5392 7223)" fill="#fff" opacity="0.396"/>
      <rect id="Rectangle_1214" data-name="Rectangle 1214" width="40.32" height="40.32" transform="translate(5395.84 7226.84)" fill="none"/>
      <g id="Group_575" data-name="Group 575" transform="translate(5392 7223)">
        <g id="Group_574" data-name="Group 574" clip-path="url(#clip-path-2)">
          <rect id="Rectangle_1216" data-name="Rectangle 1216" width="35.52" height="36.48" transform="translate(0 11.52)" fill="url(#linear-gradient-2)"/>
        </g>
      </g>
      <path id="Path_456" data-name="Path 456" d="M30.611,28.053A6.852,6.852,0,0,0,33.694,25.3a7.762,7.762,0,0,0,1.059-4.013,7.3,7.3,0,0,0-2.117-5.382q-2.118-2.153-6.2-2.153h-4.86V11.52H15.841v2.233H12.48v5.259h3.361v4.92H12.48v5.013h3.361V36.48h5.737V28.945h3.387l3.989,7.535H35.52Zm-2.056-5.32a2.308,2.308,0,0,1-2.393,1.2H21.578v-4.92h4.8a2.074,2.074,0,0,1,2.178,1.153,2.611,2.611,0,0,1,0,2.568" transform="translate(5392 7223)" fill="#fff"/>
    </g>
  </g>
</svg>
