<svg xmlns="http://www.w3.org/2000/svg" width="14" height="10.5" viewBox="0 0 14 10.5">
  <path id="properties" d="M9.1-3.5h1.05a.376.376,0,0,0,.35-.35V-7.525a.376.376,0,0,0-.35-.35H9.1a.376.376,0,0,0-.35.35V-3.85A.376.376,0,0,0,9.1-3.5Zm2.625,0h1.05a.376.376,0,0,0,.35-.35v-6.3a.376.376,0,0,0-.35-.35h-1.05a.376.376,0,0,0-.35.35v6.3A.376.376,0,0,0,11.725-3.5ZM3.85-3.5H4.9a.376.376,0,0,0,.35-.35V-5.775a.376.376,0,0,0-.35-.35H3.85a.376.376,0,0,0-.35.35V-3.85A.376.376,0,0,0,3.85-3.5Zm2.625,0h1.05a.376.376,0,0,0,.35-.35V-9.275a.376.376,0,0,0-.35-.35H6.475a.376.376,0,0,0-.35.35V-3.85A.376.376,0,0,0,6.475-3.5Zm7.087,1.75H1.75v-8.312a.437.437,0,0,0-.437-.437H.437A.437.437,0,0,0,0-10.062V-.875A.875.875,0,0,0,.875,0H13.562A.437.437,0,0,0,14-.437v-.875A.437.437,0,0,0,13.562-1.75Z" transform="translate(0 10.5)" fill="gray"/>
</svg>
