<svg class="svg-icon" style="width: 1em; height: 1em;vertical-align: middle;fill: currentColor;overflow: hidden;" viewBox="0 0 1024 1024" version="1.1" xmlns="http://www.w3.org/2000/svg"><path d="M183.0912 537.6a332.9024 332.9024 0 0 0 615.7312 117.76 25.6 25.6 0 1 1 44.032 26.0096A384.0512 384.0512 0 0 1 131.3792 537.6H75.9808a10.24 10.24 0 0 1-7.2704-17.4592L146.432 442.368a10.24 10.24 0 0 1 14.4384 0L238.592 520.192a10.24 10.24 0 0 1-7.2704 17.4592h-48.128zM843.8272 460.8A332.8 332.8 0 0 0 216.6784 332.8a25.6 25.6 0 1 1-45.4144-23.6544A384 384 0 0 1 895.1296 460.8h52.9408a10.24 10.24 0 0 1 7.2704 17.4592L877.568 556.032a10.24 10.24 0 0 1-14.4384 0L785.408 478.208A10.24 10.24 0 0 1 792.7296 460.8h51.0976z" fill="#9DA7B2" /></svg>