<svg xmlns="http://www.w3.org/2000/svg" width="15.999" height="16.002" viewBox="0 0 15.999 16.002">
  <path id="search" d="M7.781-.166,4.666-3.281A.749.749,0,0,0,4.134-3.5H3.625A6.468,6.468,0,0,0,5-7.5,6.5,6.5,0,0,0-1.5-14,6.5,6.5,0,0,0-8-7.5,6.5,6.5,0,0,0-1.5-1a6.468,6.468,0,0,0,4-1.375v.509a.749.749,0,0,0,.219.531L5.834,1.781a.747.747,0,0,0,1.059,0L7.778.9A.754.754,0,0,0,7.781-.166ZM-1.5-3.5a4,4,0,0,1-4-4,4,4,0,0,1,4-4,4,4,0,0,1,4,4A4,4,0,0,1-1.5-3.5Z" transform="translate(8 14)" fill="gray"/>
</svg>
