<svg xmlns="http://www.w3.org/2000/svg" width="14" height="11.371" viewBox="0 0 14 11.371">
  <path id="twitter" d="M12.561-8.1A6.168,6.168,0,0,0,14-9.585a5.752,5.752,0,0,1-1.652.444,2.862,2.862,0,0,0,1.261-1.581,5.649,5.649,0,0,1-1.821.693,2.862,2.862,0,0,0-2.1-.906A2.868,2.868,0,0,0,6.822-8.066a3.239,3.239,0,0,0,.071.657,8.156,8.156,0,0,1-5.916-3A2.848,2.848,0,0,0,.586-8.963a2.867,2.867,0,0,0,1.279,2.39,2.889,2.889,0,0,1-1.3-.364V-6.9a2.87,2.87,0,0,0,2.3,2.816,3.034,3.034,0,0,1-.755.1,3.616,3.616,0,0,1-.542-.044,2.874,2.874,0,0,0,2.683,1.99A5.746,5.746,0,0,1,.693-.817,5.938,5.938,0,0,1,0-.853,8.108,8.108,0,0,0,4.406.435,8.108,8.108,0,0,0,12.57-7.728C12.57-7.853,12.57-7.977,12.561-8.1Z" transform="translate(0 10.935)" fill="gray"/>
</svg>
